<?xml version="1.0" standalone="no"?>
<!DOCTYPE svg PUBLIC "-//W3C//DTD SVG 20010904//EN"
 "http://www.w3.org/TR/2001/REC-SVG-20010904/DTD/svg10.dtd">
<svg version="1.0" xmlns="http://www.w3.org/2000/svg"
 width="561.000000pt" height="561.000000pt" viewBox="0 0 561.000000 561.000000"
 preserveAspectRatio="xMidYMid meet">
<metadata>
Created by potrace 1.14, written by Peter Selinger 2001-2017
</metadata>
<g transform="translate(0.000000,561.000000) scale(0.100000,-0.100000)"
fill="#000000" stroke="none">
<path d="M775 5148 c-27 -112 -50 -205 -50 -208 -1 -3 -5 -23 -9 -45 -5 -22
-10 -49 -12 -60 -3 -20 -6 -37 -23 -115 -13 -57 -37 -191 -46 -250 -4 -25 -9
-52 -10 -60 -4 -20 -23 -152 -30 -210 -4 -25 -8 -56 -10 -70 -15 -97 -34 -311
-50 -572 -2 -35 -5 -187 -5 -338 l-1 -274 -38 -71 c-43 -80 -126 -291 -136
-348 -9 -44 14 -115 58 -179 18 -28 16 -48 -6 -48 -41 0 -245 -220 -276 -298
-25 -60 0 -199 59 -325 l28 -61 -42 -50 c-117 -140 -212 -326 -166 -326 6 0
10 8 10 18 0 14 2 14 9 3 6 -9 5 -21 -1 -30 -15 -24 5 -88 45 -144 120 -169
485 -472 727 -605 253 -138 438 -214 553 -228 52 -6 115 9 242 57 80 31 95 37
190 79 167 74 524 269 533 292 2 4 9 8 15 8 7 1 66 39 132 85 66 46 235 162
375 256 405 274 546 377 563 411 13 26 13 38 1 87 -17 71 -17 84 -1 78 6 -2
35 4 62 14 28 11 50 19 51 19 1 0 17 -24 36 -53 63 -95 166 -187 278 -249 57
-31 281 -122 340 -138 290 -77 578 -26 804 145 252 189 467 483 591 805 48
125 49 130 30 130 -11 0 -15 5 -11 15 7 20 8 20 -60 -14 -50 -25 -135 -55
-194 -68 -53 -13 -211 -11 -265 2 -55 14 -469 145 -522 166 -22 8 -21 12 42
89 212 262 299 527 298 905 0 73 -10 212 -18 255 -3 14 -7 35 -10 48 -15 78
-50 184 -76 224 -24 37 -35 46 -55 43 -23 -2 -25 1 -21 22 6 33 -6 17 -27 -37
-69 -170 -170 -318 -260 -379 -59 -41 -173 -67 -416 -96 -61 -7 -145 -24 -205
-41 -145 -41 -194 -98 -284 -328 -72 -183 -93 -260 -117 -409 -3 -21 -7 -81
-8 -133 -2 -52 -5 -96 -7 -97 -2 -2 -23 -15 -47 -30 -23 -15 -65 -50 -93 -78
-49 -48 -51 -50 -80 -37 -16 7 -29 15 -29 18 0 3 12 19 26 35 14 17 30 39 35
50 5 11 13 27 19 35 51 79 125 295 176 515 11 48 44 255 49 305 3 30 7 64 9
76 2 11 7 68 11 125 4 57 9 124 11 149 5 57 5 563 0 650 -12 204 -21 319 -32
415 -2 22 -7 60 -10 85 -7 58 -11 86 -30 198 -14 78 -19 92 -33 87 -32 -12
-297 -158 -328 -181 -17 -13 -35 -24 -38 -24 -8 0 -199 -126 -217 -143 -7 -7
-30 -23 -50 -36 -21 -12 -38 -26 -38 -30 0 -4 -12 -14 -27 -23 -16 -9 -42 -29
-60 -45 -59 -52 -105 -88 -112 -87 -3 1 -37 5 -74 8 -38 3 -72 8 -75 10 -4 2
-45 7 -92 10 -47 4 -114 9 -150 12 -36 3 -157 7 -269 8 -205 3 -205 3 -221 27
-62 92 -88 127 -110 152 -43 49 -99 107 -103 107 -2 0 16 -40 39 -90 49 -100
53 -114 23 -79 -26 31 -39 46 -139 159 -46 52 -111 126 -144 165 -34 38 -83
95 -111 125 -27 31 -75 85 -105 119 -77 89 -126 141 -131 141 -3 0 -27 -91
-54 -202z"/>
</g>
</svg>
